# xmcd
#
# Track frame offsets:
#	150
#	30783
#	51940
#	84429
#	103519
#	129417
#	155795
#	181832
#	204064
#	232221
#	275949
#	318175
#
# Disc length: 4638 seconds
#
# Revision: 1
# Processed by: cddbd v1.5.2PL0 Copyright (c) Steve Scherf et al.
# Submitted via: audiograbber 1.83.01
#
DISCID=9a121c0c
DTITLE=Grateful Dead - 80-10-26 Radio City Music Hall, New York NY
DYEAR=1900
DGENRE=
TTITLE0=Iko Iko
TTITLE1=Dark Hollow
TTITLE2=It Must Have Been The Roses
TTITLE3=On The Road Again
TTITLE4=Jack-A-Roe
TTITLE5=Cassidy
TTITLE6=China Doll
TTITLE7=Ripple
TTITLE8=Jack Straw
TTITLE9=Sugaree
TTITLE10=Little Red Rooster
TTITLE11=Brown Eyed Women
EXTD=
EXTT0=
EXTT1=
EXTT2=
EXTT3=
EXTT4=
EXTT5=
EXTT6=
EXTT7=
EXTT8=
EXTT9=
EXTT10=
EXTT11=
PLAYORDER=
